<?xml version="1.0" encoding="UTF-8"?>
<svg id="Capa_1" data-name="Capa 1" xmlns="http://www.w3.org/2000/svg" xmlns:xlink="http://www.w3.org/1999/xlink" viewBox="0 0 689.39 253.23">
  <defs>
    <style>
      .cls-1 {
        fill: url(#Degradado_sin_nombre_6);
      }

      .cls-2 {
        fill: url(#Degradado_sin_nombre_2105);
      }

      .cls-3 {
        fill: #ffffff;
      }

      .cls-4 {
        fill: url(#Degradado_sin_nombre_1825);
      }
    </style>
    <linearGradient id="Degradado_sin_nombre_6" data-name="Degradado sin nombre 6" x1="113.9" y1="227.8" x2="113.9" y2="0" gradientUnits="userSpaceOnUse">
      <stop offset="0" stop-color="#3642b5"/>
      <stop offset="1" stop-color="#eaecfe"/>
    </linearGradient>
    <linearGradient id="Degradado_sin_nombre_1825" data-name="Degradado sin nombre 1825" x1="113.9" y1="227.8" x2="113.9" y2="60.8" gradientUnits="userSpaceOnUse">
      <stop offset="0" stop-color="#92b2f5"/>
      <stop offset="1" stop-color="#ebebeb"/>
    </linearGradient>
    <linearGradient id="Degradado_sin_nombre_2105" data-name="Degradado sin nombre 2105" x1="113.9" y1="174.69" x2="113.9" y2="60.8" gradientUnits="userSpaceOnUse">
      <stop offset="0" stop-color="#fff" stop-opacity=".4"/>
      <stop offset=".15" stop-color="#f7f7fd" stop-opacity=".43"/>
      <stop offset=".35" stop-color="#e2e2f8" stop-opacity=".52"/>
      <stop offset=".59" stop-color="#bfc0f1" stop-opacity=".67"/>
      <stop offset=".85" stop-color="#8f91e6" stop-opacity=".87"/>
      <stop offset="1" stop-color="#7072e0"/>
    </linearGradient>
  </defs>
  <g>
    <circle class="cls-1" cx="113.9" cy="113.9" r="113.9"/>
    <circle class="cls-4" cx="113.9" cy="144.3" r="83.5"/>
    <circle class="cls-2" cx="113.9" cy="117.74" r="56.95"/>
  </g>
  <g>
    <g>
      <path class="cls-3" d="M367.03,60.02v26.74l-86.62,70.05h86.62v15.03h-92.59v-26.74l86.62-70.05h-86.62v-15.03h92.59Z"/>
      <path class="cls-3" d="M473.54,60.02h17.01l-57.89,156h-17.01l16.57-44.19h-13.04l-41.76-111.81h18.12l38.45,106.95,39.55-106.95Z"/>
      <path class="cls-3" d="M522.15,90.08c8.18-26.96,25.85-34.91,45.52-31.38v16.13c-24.97-5.52-45.52,9.5-45.52,33.15v63.86h-16.57V60.02h16.57v30.05Z"/>
      <path class="cls-3" d="M671.53,60.02h16.57v111.81h-16.57v-32.48c-7.51,20.77-25.19,34.69-47.51,34.69-30.27,0-53.03-24.97-53.03-58.11s22.76-58.12,53.03-58.12c22.32,0,40,13.92,47.51,34.69v-32.48ZM671.53,115.93c0-24.31-17.9-42.65-42.87-42.65-22.54,0-40.66,18.34-40.66,42.65s18.12,42.65,40.66,42.65c24.97,0,42.87-18.34,42.87-42.65Z"/>
    </g>
    <g>
      <g>
        <path class="cls-3" d="M506.29,190.81h8.85c4.46,0,7.51,3.05,7.51,7.01s-3.05,6.97-7.51,6.97h-6.24v9.49h-2.61v-23.46ZM515.14,202.41c2.85,0,4.83-2.01,4.83-4.63s-1.98-4.59-4.83-4.59h-6.24v9.22h6.24Z"/>
        <path class="cls-3" d="M532.24,196.98c5.06,0,8.92,3.82,8.92,8.82s-3.85,8.82-8.92,8.82-8.92-3.79-8.92-8.82,3.86-8.82,8.92-8.82ZM532.24,212.26c3.62,0,6.33-2.78,6.33-6.47s-2.71-6.47-6.33-6.47-6.34,2.78-6.34,6.47,2.75,6.47,6.34,6.47Z"/>
        <path class="cls-3" d="M541.96,197.31h2.51l4.76,16.22,4.19-16.22h4.53l4.19,16.29,4.76-16.29h2.45l-5.16,16.96h-4.16l-4.36-16.22-4.39,16.22h-4.16l-5.16-16.96Z"/>
        <path class="cls-3" d="M579.24,196.98c5.2,0,9.08,4.16,8.68,9.59h-14.92c.37,3.35,2.98,5.8,6.44,5.8,2.65,0,4.79-1.41,5.87-3.62l2.15.91c-1.37,2.92-4.29,4.96-8.04,4.96-5.06,0-8.92-3.79-8.92-8.82s3.79-8.82,8.75-8.82ZM585.37,204.49c-.5-2.98-2.92-5.26-6.13-5.26s-5.6,2.21-6.17,5.26h12.3Z"/>
        <path class="cls-3" d="M591.61,197.31h2.51v4.56c1.24-4.09,3.92-5.3,6.91-4.76v2.45c-3.79-.84-6.91,1.44-6.91,5.03v9.69h-2.51v-16.96Z"/>
        <path class="cls-3" d="M610.28,196.98c5.2,0,9.08,4.16,8.68,9.59h-14.92c.37,3.35,2.98,5.8,6.44,5.8,2.65,0,4.79-1.41,5.87-3.62l2.15.91c-1.37,2.92-4.29,4.96-8.04,4.96-5.06,0-8.92-3.79-8.92-8.82s3.79-8.82,8.75-8.82ZM616.41,204.49c-.5-2.98-2.92-5.26-6.13-5.26s-5.6,2.21-6.17,5.26h12.3Z"/>
        <path class="cls-3" d="M629.79,196.98c3.39,0,6.07,2.11,7.21,5.26v-12.77h2.51v24.81h-2.51v-4.93c-1.14,3.15-3.82,5.26-7.21,5.26-4.59,0-8.05-3.79-8.05-8.82s3.45-8.82,8.05-8.82ZM630.49,212.26c3.79,0,6.5-2.78,6.5-6.47s-2.71-6.47-6.5-6.47c-3.42,0-6.17,2.78-6.17,6.47s2.75,6.47,6.17,6.47Z"/>
        <path class="cls-3" d="M653.86,189.47h2.51v12.87c1.11-3.22,3.79-5.36,7.21-5.36,4.59,0,8.04,3.82,8.04,8.82s-3.45,8.82-8.04,8.82c-3.42,0-6.1-2.15-7.21-5.33v4.99h-2.51v-24.81ZM662.87,212.26c3.45,0,6.17-2.78,6.17-6.47s-2.72-6.47-6.17-6.47c-3.75,0-6.5,2.78-6.5,6.47s2.75,6.47,6.5,6.47Z"/>
        <path class="cls-3" d="M680.54,214.27h-1.98l-6.34-16.96h2.75l5.83,16.22,6-16.22h2.58l-8.78,23.67h-2.58l2.51-6.7Z"/>
      </g>
      <g>
        <path class="cls-3" d="M617.85,229.58c-.57-.54-.85-1.23-.85-2.08s.28-1.52.85-2.06c.57-.54,1.25-.81,2.05-.81,1.53-.03,2.91,1.2,2.88,2.86,0,.85-.28,1.54-.85,2.08-.56.54-1.24.81-2.03.81s-1.48-.27-2.05-.8ZM621.76,225.59c-.51-.5-1.13-.74-1.87-.74s-1.36.25-1.88.75c-.52.5-.78,1.13-.78,1.91s.26,1.42.77,1.92c.52.5,1.15.75,1.88.75s1.36-.25,1.87-.75c.51-.5.77-1.14.77-1.93s-.26-1.41-.77-1.9ZM618.81,228.63c-.29-.29-.44-.66-.44-1.12s.15-.83.44-1.12c.29-.29.67-.43,1.13-.43.4,0,.73.11,1.01.34.28.22.43.51.47.87h-.56c-.06-.43-.43-.72-.92-.72-.62,0-.99.43-.99,1.07s.38,1.07.99,1.07c.5,0,.87-.29.93-.71h.56c-.04.34-.2.63-.48.86-.27.22-.61.34-1.01.34-.45,0-.83-.15-1.12-.43Z"/>
        <g>
          <path class="cls-3" d="M511.67,248.43l13.25-14.62v-4.71h-18.62v3.98h13.33l-13.24,14.62v4.72h19.14v-3.98h-13.86Z"/>
          <path class="cls-3" d="M550.21,239.86c0-1.5-.26-2.95-.77-4.34-.52-1.39-1.28-2.62-2.3-3.69-1.02-1.07-2.29-1.93-3.82-2.58-1.53-.65-3.32-.98-5.35-.98s-3.93.35-5.49,1.04c-1.56.69-2.87,1.6-3.92,2.73-1.05,1.13-1.83,2.41-2.34,3.85-.52,1.45-.77,2.92-.77,4.42v.82c0,1.47.25,2.93.75,4.38.5,1.44,1.28,2.74,2.34,3.88,1.06,1.14,2.39,2.07,3.99,2.77,1.59.71,3.5,1.06,5.72,1.06,3.03,0,5.57-.7,7.62-2.1,2.05-1.4,3.34-3.32,3.87-5.77h-5.11c-.25.98-.93,1.82-2.04,2.51-1.11.69-2.56,1.04-4.34,1.04-1.22,0-2.28-.17-3.19-.52-.91-.35-1.67-.83-2.3-1.45-.63-.62-1.1-1.35-1.43-2.2-.33-.85-.54-1.8-.63-2.83h19.51v-2.04ZM530.83,238.48c.34-1.83,1.1-3.27,2.27-4.33,1.17-1.06,2.79-1.59,4.86-1.59s3.67.53,4.81,1.59c1.14,1.06,1.84,2.51,2.09,4.33h-14.02Z"/>
          <path class="cls-3" d="M606.57,239.05l9.01-9.95h-5.82l-10.23,11.46v-11.46h-5.49v23.31h5.49v-10.86h3.05l9.01,10.86h6.29l-11.31-13.36Z"/>
          <path class="cls-3" d="M586.15,229.1v13.9c0,1.74-.54,3.11-1.62,4.1-1.08,1-2.46,1.5-4.15,1.5s-2.97-.46-3.94-1.39c-.97-.93-1.45-2.22-1.45-3.87v-14.25h-5.49v13.54c0,3.5.79,6.14,2.37,7.92,1.58,1.78,3.87,2.67,6.87,2.67h.23c4.38,0,7.15-2.05,8.3-6.14v5.32h4.36v-23.31h-5.49Z"/>
          <path class="cls-3" d="M566.23,228.84c-5.44,0-8.54,2.45-9.29,7.35v-7.09h-4.36v23.31h5.49v-12.37c0-2.16.63-3.83,1.9-5,1.27-1.17,3.09-1.75,5.46-1.75h1.69v-4.45h-.89Z"/>
        </g>
      </g>
    </g>
  </g>
</svg>
